<svg width="57" height="57" viewBox="0 0 57 57" fill="none" xmlns="http://www.w3.org/2000/svg">
<ellipse cx="29.1121" cy="29.4145" rx="17.3696" ry="17.9826" transform="rotate(-12 29.1121 29.4145)" fill="white"/>
<path d="M51.4864 23.6141C54.1848 36.3092 46.081 48.7881 33.3859 51.4865C20.6908 54.1849 8.21191 46.081 5.51349 33.3859C2.81507 20.6909 10.919 8.21197 23.614 5.51355C36.3091 2.81513 48.788 10.919 51.4864 23.6141ZM14.3655 31.5044C16.0247 39.3107 23.6981 44.2938 31.5043 42.6345C39.3106 40.9752 44.2937 33.3019 42.6345 25.4956C40.9752 17.6894 33.3018 12.7062 25.4956 14.3655C17.6893 16.0248 12.7062 23.6981 14.3655 31.5044Z" fill="#F02424"/>
<path d="M34.6573 27.0372C35.3665 30.3738 33.2366 33.6535 29.9001 34.3627C26.5635 35.0719 23.2838 32.942 22.5746 29.6055C21.8654 26.269 23.9953 22.9892 27.3318 22.28C30.6684 21.5708 33.9481 23.7007 34.6573 27.0372Z" fill="#F02424"/>
<rect x="9.84326" y="30.1675" width="40.3718" height="5.42308" transform="rotate(-12 9.84326 30.1675)" fill="#F02424"/>
</svg>
